<svg width="83" height="39" viewBox="0 0 83 39" fill="none" xmlns="http://www.w3.org/2000/svg">
<path d="M1.93182 31V13.5455H6.625V16.5909H6.80682C7.125 15.5076 7.65909 14.6894 8.40909 14.1364C9.15909 13.5758 10.0227 13.2955 11 13.2955C11.2424 13.2955 11.5038 13.3106 11.7841 13.3409C12.0644 13.3712 12.3106 13.4129 12.5227 13.4659V17.7614C12.2955 17.6932 11.9811 17.6326 11.5795 17.5795C11.178 17.5265 10.8106 17.5 10.4773 17.5C9.76515 17.5 9.12879 17.6553 8.56818 17.9659C8.01515 18.2689 7.57576 18.6932 7.25 19.2386C6.93182 19.7841 6.77273 20.4129 6.77273 21.125V31H1.93182Z" fill="#E91313"/>
<path d="M20.2273 7.72727L25.8523 25.4091H26.0682L31.7045 7.72727H37.1591L29.1364 31H22.7955L14.7614 7.72727H20.2273ZM39.9602 31V7.72727H49.142C50.9072 7.72727 52.411 8.06439 53.6534 8.73864C54.8958 9.4053 55.8428 10.3333 56.4943 11.5227C57.1534 12.7045 57.483 14.0682 57.483 15.6136C57.483 17.1591 57.1496 18.5227 56.483 19.7045C55.8163 20.8864 54.8504 21.8068 53.5852 22.4659C52.3277 23.125 50.8049 23.4545 49.017 23.4545H43.1648V19.5114H48.2216C49.1686 19.5114 49.9489 19.3485 50.5625 19.0227C51.1837 18.6894 51.6458 18.2311 51.9489 17.6477C52.2595 17.0568 52.4148 16.3788 52.4148 15.6136C52.4148 14.8409 52.2595 14.1667 51.9489 13.5909C51.6458 13.0076 51.1837 12.5568 50.5625 12.2386C49.9413 11.9129 49.1534 11.75 48.1989 11.75H44.8807V31H39.9602ZM80.1449 7.72727V31H75.8949L65.7699 16.3523H65.5994V31H60.679V7.72727H64.9972L75.0426 22.3636H75.2472V7.72727H80.1449Z" fill="white"/>
</svg>
